<?xml version="1.0" encoding="UTF-8" standalone="no" ?>
<!DOCTYPE svg PUBLIC "-//W3C//DTD SVG 1.1//EN" "http://www.w3.org/Graphics/SVG/1.1/DTD/svg11.dtd">
<svg xmlns="http://www.w3.org/2000/svg" xmlns:xlink="http://www.w3.org/1999/xlink" version="1.1" width="640" height="558" viewBox="0 0 640 558" xml:space="preserve">
<desc>Created with Fabric.js 4.6.0</desc>
<defs>
</defs>
<g transform="matrix(1.88 0 0 1.88 320.5 278.99)" id="O3NeYRQ8roWj9-Vp_dKkb"  >
<g style="" vector-effect="non-scaling-stroke"   >
		<g transform="matrix(1 0 0 1 0 0)" id="6YIv7aF7a84h2sJZrR6g5"  >
<path style="stroke: none; stroke-width: 1; stroke-dasharray: none; stroke-linecap: butt; stroke-dashoffset: 0; stroke-linejoin: miter; stroke-miterlimit: 4; fill: rgb(255,2,2); fill-rule: evenodd; opacity: 1;" vector-effect="non-scaling-stroke"  transform=" translate(-169.72, -147.63)" d="M 62.15 1.45 L 0.259999999999998 131.45 C -0.22340447779078654 132.4424895642914 -0.004542378799218483 133.6340721032455 0.799999999999998 134.39 L 167.95 294.56 C 168.9365046438064 295.506059857653 170.4934953561936 295.506059857653 171.48 294.56 L 338.63 134.4 C 339.4345423787992 133.64407210324552 339.6534044777908 132.45248956429143 339.17 131.46 L 277.28000000000003 1.460000000000008 C 276.8720902119534 0.5683113781442368 275.9805571496383 -0.002582600355776954 275 4.440892098500626e-16 L 64.45 0 C 63.46454739527512 -0.01226006576923416 62.563845862547154 0.5555735092114396 62.150000000000006 1.4500000000000004 L 62.150000000000006 1.45 Z" stroke-linecap="round" />
</g>
		<g transform="matrix(1 0 0 1 -0.01 -10.14)" id="nETIEuG2mKHgPDFoNWUGp"  >
<path style="stroke: none; stroke-width: 1; stroke-dasharray: none; stroke-linecap: butt; stroke-dashoffset: 0; stroke-linejoin: miter; stroke-miterlimit: 4; fill: rgb(255,255,255); fill-rule: evenodd; opacity: 1;" vector-effect="non-scaling-stroke"  transform=" translate(-169.7, -137.5)" d="M 191.19 144.8 L 191.19 144.8 C 189.99 144.89000000000001 183.79 145.26000000000002 169.96 145.26000000000002 C 158.96 145.26000000000002 151.15 144.93 148.41 144.8 L 148.41 144.8 C 105.9 142.93 74.17 135.53 74.17 126.67000000000002 C 74.17 117.81000000000003 105.9 110.42000000000002 148.41 108.52000000000001 L 148.41 137.43 C 151.19 137.63 159.15 138.1 170.15 138.1 C 183.35 138.1 189.96 137.54999999999998 191.15 137.44 L 191.15 108.53999999999999 C 233.57 110.42999999999999 265.23 117.82999999999998 265.23 126.66999999999999 C 265.23 135.51 233.58 142.91 191.15000000000003 144.79 L 191.15000000000003 144.79 Z M 191.19 105.55000000000001 L 191.19 79.68 L 250.39 79.68 L 250.39 40.23 L 89.21 40.23 L 89.21 79.68 L 148.4 79.68 L 148.4 105.54 C 100.29 107.75 64.11 117.28 64.11 128.70000000000002 C 64.11 140.12000000000003 100.28999999999999 149.64000000000001 148.4 151.86 L 148.4 234.76000000000002 L 191.18 234.76000000000002 L 191.18 151.83 C 239.18 149.62 275.3 140.10000000000002 275.3 128.69 C 275.3 117.27999999999997 239.21 107.75999999999999 191.18 105.53999999999999 L 191.18 105.53999999999999 Z M 191.19 105.55000000000001 L 191.19 105.55000000000001 Z" stroke-linecap="round" />
</g>
</g>
</g>
</svg>